******************************************************

a`ala gothaty 2013 Arabic Dvd x264 AC3 - alrmothe

******************************************************

Title:Over My Dead Body  
YEAR: 2013
GENRE : Drama        
http://www.elcinema.com/work/wk2018689/
Overall bit rate: 2737 kbps
Format version: Version 4 / Version 2
File size:  2.04 GiB
Duration:  1h 47mn

Sub:Arabic,English,French

The same subtitle format used on DVDs


sample:Yes

Chapters:Yes
******************************************************

Video
Format: Matroska
Format : AVC 
Format/Info : Advanced Video Codec 
Format profile : High@L4.1 
Format settings, CABAC : Yes 
Format settings, ReFrames : 4 frames  
Codec ID : V_MPEG4/ISO/AVC  
Bit rate : 2485 kbps 
Width : 718 pixels 
Height : 400 pixels 
Frame rate : 25 fps 
Color space : YUV 
Chroma subsampling : 4:2:0 
Bit depth : 8 bits 
Scan type : Progressive 
Bits/(Pixel*Frame) : 0.346 
Stream size: 1.84 GiB 


Audio 
Format: Ac3
Bit rate :224 Kbps
Channel(s) : 2 channels
Channel positions:Front: L R
Sampling rate: 48.0 KHz
Bit depth: 16 bits
Compression mode: Lossy
Stream size: 171 MiB
Language : Arabic


******************************************************
